<svg width="160" height="52" viewBox="0 0 160 52" fill="none" xmlns="http://www.w3.org/2000/svg">
<g clip-path="url(#clip0_331_395)">
<path d="M34.8022 9.3566L19.0874 24.7605H0L25.2585 0L34.8022 9.3566Z" fill="url(#paint0_linear_331_395)"/>
<path d="M29.1107 18.4951L22.7172 24.7604H35.5012L29.1107 18.4951Z" fill="url(#paint1_linear_331_395)"/>
<path d="M11.0085 33.505L17.4005 27.2397H4.61792L11.0085 33.505Z" fill="#D36011"/>
<path d="M5.31671 42.6437L21.0315 27.2397H40.1189L14.8604 52.0003L5.31671 42.6437Z" fill="#D36011"/>
<path fill-rule="evenodd" clip-rule="evenodd" d="M65.6748 25.7087C66.4184 25.3909 67.0557 24.8671 67.5115 24.1991C67.974 23.5004 68.2111 22.6766 68.1909 21.8389C68.2319 21.0385 67.9935 20.2487 67.5166 19.6046C67.0867 19.054 66.5287 18.617 65.8912 18.3315C65.0901 17.9912 64.2682 17.7021 63.4304 17.4659C62.8164 17.3004 62.2117 17.1022 61.6188 16.8721C61.2075 16.7098 60.8328 16.4669 60.5167 16.1576C60.3698 16.005 60.2552 15.8242 60.18 15.6261C60.1048 15.4281 60.0704 15.2169 60.0789 15.0052C60.0694 14.7096 60.1345 14.4163 60.2682 14.1525C60.4019 13.8886 60.5998 13.6627 60.8438 13.4955C61.4395 13.103 62.1441 12.9092 62.8567 12.942C63.5715 12.9012 64.2803 13.0929 64.8772 13.4884C65.474 13.8839 65.9268 14.4619 66.1679 15.136L67.9493 14.1296C67.6589 13.1991 67.0518 12.3997 66.2334 11.8701C65.2471 11.26 64.1011 10.9586 62.9423 11.0046C62.0445 10.9934 61.1529 11.154 60.3155 11.4776C59.5669 11.7638 58.9157 12.2579 58.4384 12.9017C57.9652 13.564 57.7214 14.3627 57.744 15.1763C57.7074 15.9108 57.928 16.6351 58.368 17.2244C58.7688 17.7305 59.287 18.1312 59.8777 18.3919C60.6498 18.7202 61.4413 19.0008 62.2478 19.2323C63.0681 19.4738 63.7122 19.6902 64.1903 19.8864C64.647 20.0669 65.0566 20.3492 65.3879 20.7117C65.7151 21.0869 65.8861 21.5731 65.866 22.0704C65.8812 22.3783 65.8214 22.6853 65.6917 22.9649C65.5619 23.2446 65.3661 23.4885 65.1212 23.6757C64.5061 24.0932 63.7699 24.2949 63.0278 24.2494C62.1241 24.2786 61.2327 24.0329 60.4715 23.5449C59.7575 23.046 59.209 22.345 58.8964 21.532L57.12 22.5384C57.4642 23.6586 58.2143 24.6098 59.2235 25.2055C60.3489 25.8935 61.6487 26.2429 62.9674 26.2119C63.8952 26.2356 64.8175 26.0642 65.6748 25.7087ZM94.1365 22.2216L86.1654 11.2564H84.3488V26.0159H86.3919V15.0255L94.3629 26.0159H96.1846V11.2564H94.1365V22.2216ZM103.995 11.256C105.359 11.2374 106.709 11.5335 107.941 12.1216C109.088 12.6814 110.047 13.5648 110.698 14.6628C111.355 15.8822 111.699 17.2456 111.699 18.6307C111.699 20.0159 111.355 21.3793 110.698 22.5987C110.042 23.6832 109.088 24.5565 107.951 25.1148C106.72 25.717 105.365 26.0188 103.995 25.9954H99.6172V11.256H103.995ZM103.708 24.1184C105.49 24.1184 106.882 23.6386 107.885 22.6792C108.888 21.7197 109.391 20.3643 109.395 18.6131C109.395 16.882 108.892 15.5401 107.885 14.5874C106.879 13.6346 105.486 13.1549 103.708 13.1481H101.806V24.1335L103.708 24.1184ZM80.0675 26.0108L75.6492 14.9752L71.2359 26.0108H68.8104L74.5974 11.2564H76.4795L82.488 26.0108H80.0675Z" fill="white"/>
<path fill-rule="evenodd" clip-rule="evenodd" d="M134.798 11.9408C133.739 12.5722 132.882 13.4921 132.327 14.5928C131.708 15.8356 131.399 17.21 131.426 18.5984C131.395 20.0033 131.704 21.395 132.327 22.6544C132.878 23.7566 133.736 24.6759 134.798 25.3013C135.868 25.9205 137.085 26.2387 138.321 26.2222C139.558 26.241 140.777 25.9189 141.843 25.2913C142.899 24.659 143.756 23.7415 144.314 22.6443C144.908 21.3854 145.216 20.0106 145.216 18.6185C145.216 17.2264 144.908 15.8516 144.314 14.5928C143.759 13.4921 142.902 12.5722 141.843 11.9408C140.769 11.3321 139.555 11.0122 138.321 11.0122C137.086 11.0122 135.872 11.3321 134.798 11.9408ZM135.925 23.5551C135.218 23.0575 134.668 22.3677 134.34 21.5674H134.32C133.926 20.6316 133.734 19.6234 133.756 18.6085C133.735 17.6001 133.927 16.5986 134.32 15.6697C134.652 14.8717 135.206 14.1855 135.915 13.692C136.623 13.2144 137.462 12.9683 138.316 12.9875C139.18 12.9668 140.029 13.2147 140.746 13.697C141.461 14.1876 142.018 14.8744 142.351 15.6747C142.744 16.6036 142.936 17.6051 142.915 18.6135C142.936 19.6268 142.744 20.6332 142.351 21.5674C142.021 22.369 141.467 23.0589 140.756 23.5551C140.041 24.0328 139.196 24.2787 138.336 24.2596C137.479 24.2796 136.637 24.0335 135.925 23.5551ZM128.755 11.2565H127.013L121.639 19.6654L116.265 11.2565H114.423V26.016H116.511V15.2873L120.965 22.1613H122.213L126.626 15.3276V26.016H128.755V11.2565ZM152.3 11.2562C153.664 11.2375 155.014 11.5337 156.245 12.1217C157.393 12.6815 158.351 13.5649 159.003 14.663C159.66 15.8823 160.004 17.2458 160.004 18.6309C160.004 20.016 159.66 21.3795 159.003 22.5988C158.347 23.6833 157.393 24.5566 156.255 25.1149C155.025 25.7171 153.669 26.0189 152.3 25.9955H147.922V11.2562H152.3ZM152.013 24.1185C153.795 24.1185 155.187 23.6388 156.19 22.6793C157.193 21.7198 157.696 20.3645 157.7 18.6133C157.7 16.8822 157.196 15.5403 156.19 14.5875C155.183 13.6347 153.791 13.155 152.013 13.1483H150.111V24.1336L152.013 24.1185ZM75.6492 19.0564L72.8664 26.011H78.432L75.6492 19.0564Z" fill="#F2A722"/>
<path fill-rule="evenodd" clip-rule="evenodd" d="M101.777 37.7973V36.494H105.33V40.4644C104.971 40.955 104.484 41.3365 103.921 41.5665C103.24 41.8617 102.504 42.0092 101.762 41.9992C100.867 42.014 99.985 41.7899 99.2058 41.3501C98.4583 40.9148 97.8481 40.2784 97.4445 39.5133C97.0074 38.6807 96.7876 37.7512 96.8054 36.811C96.7873 35.8734 97.009 34.9467 97.4495 34.1188C97.8589 33.3628 98.4704 32.7355 99.2158 32.3072C99.9683 31.8741 100.824 31.6516 101.692 31.6631C102.474 31.6471 103.247 31.8325 103.936 32.2015C104.546 32.523 105.027 33.0433 105.3 33.676L104.082 34.3704C103.863 33.9512 103.529 33.6024 103.121 33.364C102.67 33.1054 102.156 32.9749 101.636 32.9865C101.041 32.9787 100.455 33.1429 99.9505 33.4596C99.4444 33.7878 99.0428 34.254 98.7931 34.8032C98.5121 35.437 98.367 36.1227 98.367 36.8161C98.367 37.5094 98.5121 38.1951 98.7931 38.8289C99.0621 39.3871 99.4868 39.8554 100.016 40.1776C100.568 40.5116 101.202 40.6858 101.848 40.6808C102.213 40.7104 102.581 40.6634 102.928 40.543C103.274 40.4226 103.592 40.2313 103.861 39.9813V37.8225L101.777 37.7973ZM60.1006 37.3448H64.4585V36.0817H60.1006V33.1127H64.9718V31.8144H58.6312V41.8487H65.1329V40.5453H60.1006V37.3448ZM83.5863 39.2718L78.1767 31.8241H76.9388V41.8483H78.3277V34.3855L83.7423 41.8483H84.9752V31.8241H83.5863V39.2718ZM117.116 41.8483H118.6V31.8241H117.116V41.8483ZM132.162 31.8241L137.577 39.2718V31.8241H138.966V41.8483H137.733L132.318 34.3855V41.8483H130.929V31.8241H132.162ZM152.779 37.3448H157.137V36.0817H152.779V33.1127H157.65V31.8144H151.295V41.8487H157.811V40.5453H152.779V37.3448Z" fill="white"/>
</g>
<defs>
<linearGradient id="paint0_linear_331_395" x1="0" y1="12.381" x2="34.8022" y2="12.381" gradientUnits="userSpaceOnUse">
<stop stop-color="#EA8724"/>
<stop offset="1" stop-color="#F7CA15"/>
</linearGradient>
<linearGradient id="paint1_linear_331_395" x1="22.7172" y1="21.6278" x2="35.5012" y2="21.6278" gradientUnits="userSpaceOnUse">
<stop stop-color="#EA8724"/>
<stop offset="1" stop-color="#F7CA15"/>
</linearGradient>
<clipPath id="clip0_331_395">
<rect width="160" height="52" fill="white"/>
</clipPath>
</defs>
</svg>
